HIERARCHY
ROOT Hips
{
	OFFSET 0.0000 0.0000 0.0000
	CHANNELS 6 Xposition Yposition Zposition Zrotation Xrotation Yrotation
	JOINT Ab
	{
		OFFSET -0.0000 8.0846 -0.0000
		CHANNELS 3 Zrotation Xrotation Yrotation
		JOINT Chest
		{
			OFFSET -0.0000 25.0068 -0.0000
			CHANNELS 3 Zrotation Xrotation Yrotation
			JOINT Neck
			{
				OFFSET -0.0000 25.0068 0.0000
				CHANNELS 3 Zrotation Xrotation Yrotation
				JOINT Head
				{
					OFFSET -0.0000 10.7556 0.0000
					CHANNELS 3 Zrotation Xrotation Yrotation
					End Site
					{
						OFFSET -0.0000 16.6222 0.0000
					}
				}
			}
			JOINT LeftCollar
			{
				OFFSET -0.0000 25.0068 0.0000
				CHANNELS 3 Zrotation Xrotation Yrotation
				JOINT LeftShoulder
				{
					OFFSET 19.5556 -0.0000 0.0000
					CHANNELS 3 Zrotation Xrotation Yrotation
					JOINT LeftElbow
					{
						OFFSET 27.1828 0.0000 0.0000
						CHANNELS 3 Zrotation Xrotation Yrotation
						JOINT LeftWrist
						{
							OFFSET 23.3157 0.0000 0.0000
							CHANNELS 3 Zrotation Xrotation Yrotation
							End Site
							{
								OFFSET 0.0000 -14.6667 0.0000
							}
						}
					}
				}
			}
			JOINT RightCollar
			{
				OFFSET -0.0000 25.0068 0.0000
				CHANNELS 3 Zrotation Xrotation Yrotation
				JOINT RightShoulder
				{
					OFFSET -19.5556 0.0000 0.0000
					CHANNELS 3 Zrotation Xrotation Yrotation
					JOINT RightElbow
					{
						OFFSET -27.1828 0.0000 0.0000
						CHANNELS 3 Zrotation Xrotation Yrotation
						JOINT RightWrist
						{
							OFFSET -23.3157 0.0000 0.0000
							CHANNELS 3 Zrotation Xrotation Yrotation
							End Site
							{
								OFFSET -0.0000 -14.6667 0.0000
							}
						}
					}
				}
			}
		}
	}
	JOINT LeftHip
	{
		OFFSET 11.7333 0.0000 0.0000
		CHANNELS 3 Zrotation Xrotation Yrotation
		JOINT LeftKnee
		{
			OFFSET -0.0000 -40.8688 0.0000
			CHANNELS 3 Zrotation Xrotation Yrotation
			JOINT LeftAnkle
			{
				OFFSET -0.0000 -44.4337 0.0000
				CHANNELS 3 Zrotation Xrotation Yrotation
				End Site
				{
					OFFSET -0.0000 -4.8889 16.6222
				}
			}
		}
	}
	JOINT RightHip
	{
		OFFSET -11.7333 0.0000 0.0000
		CHANNELS 3 Zrotation Xrotation Yrotation
		JOINT RightKnee
		{
			OFFSET -0.0000 -40.8688 0.0000
			CHANNELS 3 Zrotation Xrotation Yrotation
			JOINT RightAnkle
			{
				OFFSET -0.0000 -44.4337 0.0000
				CHANNELS 3 Zrotation Xrotation Yrotation
				End Site
				{
					OFFSET -0.0000 -4.8889 16.6222
				}
			}
		}
	}
}
MOTION
Frames: 12
Frame Time: 0.010000
2.7243 88.0542 66.6410 1.2924 359.2621 181.8810 2.8589 5.9031 0.3668 355.6201 4.9818 0.7027 5.3372 338.3262 359.4388 357.7576 8.1358 358.5634 341.0335 358.2454 10.3511 299.5327 18.6742 8.6650 13.3697 355.1646 319.1487 84.9162 355.4994 339.2325 18.9903 359.0441 354.2394 33.9436 46.6088 32.6588 326.3315 347.9196 38.8753 273.2214 348.1859 4.6454 1.0150 351.3245 356.5905 357.0557 19.2939 356.9084 355.5313 348.1741 24.1249 2.8749 345.6378 0.5678 359.5733 30.4571 11.6667 357.8517 336.8706 334.2506 
2.5935 87.9453 66.0459 1.1753 359.5581 181.8639 2.5102 5.9634 0.2527 355.6877 5.0552 0.5740 5.2340 338.2973 359.3458 358.1413 8.3251 358.4716 340.9024 358.2470 10.2845 299.5779 19.2928 8.6745 13.6878 354.9377 319.5223 84.8751 355.6123 339.7521 19.1174 359.0455 354.2661 33.6076 46.5680 32.6487 326.7779 348.0187 39.2102 273.7785 348.1686 5.7976 0.8870 351.9612 356.7271 356.9764 19.4246 356.8709 355.7664 347.7427 24.0486 2.7091 345.3149 0.6003 359.6364 32.2804 11.4071 353.3097 339.8885 333.8576 
2.4662 87.8341 65.4823 1.0356 359.7762 181.8996 2.3400 5.9256 359.9994 355.4753 5.2313 0.3178 5.1005 338.2084 359.3204 358.6706 8.5038 358.4392 340.9741 358.2496 10.2842 299.4982 19.6110 8.5915 13.9016 354.8048 319.7769 84.8848 355.7761 340.0708 19.3010 359.0391 354.3636 33.1686 46.6869 32.8660 327.3788 348.2405 39.2508 273.8569 348.0647 6.6242 0.7416 352.4958 356.7736 356.8615 19.5740 356.8236 356.0119 347.3326 23.9836 2.5014 344.7870 0.6996 359.8487 34.2622 10.7896 353.5474 339.2341 334.0018 
2.3476 87.7019 64.9404 0.9189 359.8879 182.0090 2.0748 5.8743 359.8194 355.4289 5.3025 0.1238 5.1119 338.1002 359.3548 358.8939 8.6681 358.4483 341.0052 358.2549 10.2230 299.4894 19.5791 8.4254 13.8524 354.8724 320.0220 85.0008 355.7378 340.0623 19.3732 359.0402 354.3454 32.9520 46.7907 32.9749 327.9437 348.4172 39.4267 274.3115 348.1323 7.6481 0.6305 352.9546 356.8185 356.7535 19.6584 356.7662 356.0348 346.9989 23.7043 2.2547 344.0738 0.8240 0.2283 36.3463 10.0384 353.6317 338.8466 334.0592 
2.2268 87.5535 64.3910 0.7616 0.0698 182.1037 1.6864 5.9522 359.7324 355.4951 5.2711 0.0114 5.1986 338.0917 359.3011 358.9094 8.7988 358.3695 340.9000 358.2732 10.1107 299.5760 20.5141 8.2690 14.3477 354.6345 320.3836 84.9077 355.7109 340.6766 19.4375 359.0219 354.1499 33.0419 46.8224 32.7614 328.5862 348.6182 39.6981 274.3804 348.1719 8.5616 0.4896 353.5645 356.8517 356.6303 19.5974 356.6252 356.3840 346.7770 23.6554 1.9077 343.3848 0.9567 0.8722 38.4981 8.7581 353.8243 338.5073 334.4098 
2.0801 87.4135 63.8416 0.5801 0.3310 182.2180 1.4096 6.1149 359.5030 355.4581 5.2901 359.7940 5.2616 338.0154 359.3194 358.9536 8.9723 358.3743 340.7723 358.2363 10.3107 299.6593 22.3294 7.8690 15.3687 354.1153 320.9197 84.7054 355.6310 341.9877 19.5478 358.9933 354.1035 33.5480 46.4083 32.0847 329.6123 348.9667 40.3558 274.4219 348.2644 9.7144 0.2820 354.2868 356.7725 356.5320 19.4612 356.5592 356.5835 346.4267 23.6446 1.4533 342.7302 0.9062 1.7085 40.6542 7.1186 353.9065 338.1413 335.0321 
1.9405 87.2953 63.3001 0.4376 0.4772 182.2796 1.1132 6.0992 359.4754 355.5154 5.4787 359.7399 5.3081 337.8690 359.3421 358.8849 9.0977 358.3857 340.6621 358.2518 10.1661 299.8237 22.6063 7.4225 15.4549 354.2113 320.9873 85.0306 355.5888 342.4442 19.5217 358.9658 353.8740 33.7752 46.4934 31.8742 330.1822 349.0458 40.5417 274.8726 348.1854 10.4818 0.1195 354.9020 356.7225 356.4311 19.3143 356.4952 356.8070 346.1358 23.6673 1.0200 341.9318 0.8460 2.4836 42.7972 6.0266 354.2345 338.1239 335.3258 
1.7951 87.1885 62.7630 0.2713 0.5826 182.3637 0.8521 6.0952 359.3761 355.5540 5.5686 359.6509 5.2408 337.8583 359.2393 358.8495 9.1464 358.2965 340.5314 358.2675 9.8365 300.0069 22.9536 7.0219 15.5539 354.2744 321.1076 85.4602 355.4562 342.9285 19.5402 358.9138 353.4738 34.1242 46.6130 31.4868 330.6762 349.1316 40.7348 275.2313 348.1367 11.1266 359.9022 355.4808 356.6887 356.3960 19.1571 356.2761 356.9886 345.8327 23.8594 0.5178 341.0899 0.5734 3.2003 44.8706 4.9106 355.5105 337.9580 335.6783 
1.6606 87.1048 62.2256 0.1462 0.6674 182.4668 0.5885 6.1755 359.3252 355.7005 5.4186 359.5294 5.1488 338.0249 359.1954 358.8156 9.2190 358.2841 340.2200 358.2567 9.8447 300.2870 24.6199 6.5202 16.3736 353.9235 321.5692 85.6153 355.5170 344.3269 19.6341 358.8592 353.2279 34.9009 46.4194 30.4963 331.4492 349.3495 41.2065 275.6640 348.2925 11.7789 359.7216 356.0829 356.5906 356.3758 18.9063 356.0073 357.0825 345.5322 24.1923 0.0265 340.2999 0.2500 4.1106 46.5004 2.9184 355.8581 337.6813 335.9322 
1.5418 87.0195 61.6505 0.0324 0.7550 182.6111 0.4228 6.2170 359.1818 355.7296 5.2970 359.4165 5.1081 338.2318 359.1096 358.7078 9.3033 358.2230 339.9337 358.2590 9.6569 300.6156 25.7951 6.0527 16.9947 353.7571 321.9687 86.0376 355.4919 345.4401 19.7308 358.7924 352.8706 35.3982 46.9856 29.7860 331.6652 349.3003 41.2667 275.8568 348.3182 11.9998 359.5731 356.7411 356.4617 356.3530 18.5674 355.9730 357.1257 345.2841 24.2143 359.5083 339.5971 359.8852 4.8648 47.7119 1.7751 355.4017 337.9192 336.2055 
1.4333 86.9447 61.0450 359.9546 0.8035 182.7732 0.2997 6.1897 359.0943 355.7803 5.2251 359.3013 5.1143 338.4727 359.0672 358.5726 9.3233 358.2015 339.6141 358.2563 9.4898 301.0113 26.7791 5.4354 17.6104 353.6386 322.3433 86.2875 355.5547 346.5244 19.8313 358.7312 352.5962 36.2553 47.2784 28.6577 332.0053 349.3665 41.5271 275.9177 348.4996 12.4048 359.4636 357.3898 356.3879 356.3698 18.2013 355.9931 357.1185 345.0476 24.0821 359.0019 338.9215 359.5257 5.5838 48.5100 1.0096 355.3172 337.8047 336.3241 
1.3302 86.8924 60.4271 359.9308 0.8392 182.9400 0.2753 6.1454 358.9761 355.8562 5.2014 359.1806 4.9518 338.6419 358.9816 358.5331 9.4456 358.1628 339.3547 358.2664 9.3109 301.3686 27.5831 4.6779 18.0857 353.5724 322.6526 86.5316 355.6012 347.2688 19.8554 358.6806 352.2572 37.2874 47.4967 27.4222 332.3792 349.4647 41.7219 275.7982 348.6193 12.6777 359.3957 358.0445 356.4319 356.4669 17.8485 355.5320 357.5438 344.9101 24.3698 358.5814 338.3065 359.2548 6.1411 48.9041 0.6956 356.3740 337.4883 336.5435 
